<svg width="156" height="251" viewBox="0 0 156 251" fill="none" xmlns="http://www.w3.org/2000/svg">
<path fill-rule="evenodd" clip-rule="evenodd" d="M186.348 62.1176C194.362 74.1563 201.026 86.164 205.189 100.372C210.615 118.89 226.293 139.08 214.155 157.025C201.854 175.211 174.55 168.612 154.211 175.738C138.244 181.333 124.265 192.91 107.999 194.219C88.9757 195.749 69.8787 193.715 55.4344 183.685C39.1126 172.35 22.8956 156.523 23.2978 135.399C23.6961 114.477 43.3805 96.9864 57.4237 79.1913C69.4756 63.9195 82.0006 49.37 98.7938 39.7324C116.315 29.6767 136.48 19.1694 154.142 23.6849C171.411 28.1001 176.825 47.8115 186.348 62.1176Z" fill="url(#paint0_linear)" fill-opacity="0.6"/>
<defs>
<linearGradient id="paint0_linear" x1="270.319" y1="-55.9111" x2="-21.2264" y2="179.579" gradientUnits="userSpaceOnUse">
<stop offset="0.556936" stop-color="#F29A28"/>
<stop offset="1" stop-color="#F29A28" stop-opacity="0"/>
</linearGradient>
</defs>
</svg>
